<svg xmlns="http://www.w3.org/2000/svg" xmlns:xlink="http://www.w3.org/1999/xlink" viewBox="0 0 59.21 25.15"><defs><style>.cls-1{fill:none;}.cls-2{clip-path:url(#clip-path);}.cls-3{fill:#2196f3;}</style><clipPath id="clip-path" transform="translate(9.42 -5.4)"><rect class="cls-1" width="41.55" height="39.03"/></clipPath></defs><g id="Layer_2" data-name="Layer 2"><g id="Layer_1-2" data-name="Layer 1"><g class="cls-2"><path class="cls-3" d="M19.6,27.06a7.54,7.54,0,0,0-.89-4.71c-.59-.93.5-1.65.94-1.65a1.07,1.07,0,0,1,.75.41" transform="translate(9.42 -5.4)"/><path class="cls-3" d="M20.76,27.06a7.62,7.62,0,0,1,.89-4.71c.6-.93-.5-1.65-.93-1.65a1.07,1.07,0,0,0-.75.41" transform="translate(9.42 -5.4)"/><path class="cls-3" d="M20.19,30.55V26L19,26.5A31.27,31.27,0,0,0,4.89,23.62,37.06,37.06,0,0,0-9.42,28l2,2.52S-1,27,5.38,26.68,20.19,30.55,20.19,30.55Z" transform="translate(9.42 -5.4)"/><path class="cls-3" d="M14.83,24.14a22.81,22.81,0,0,0-9.45-3.37c-5.49-.63-6.94.23-10.63-1.2s-3.64-2.35-3.64-2.35,1.8,5,4.59,5.41,4.24-.27,11,0S14.83,24.14,14.83,24.14Z" transform="translate(9.42 -5.4)"/><path class="cls-3" d="M16.11,24.86a13.23,13.23,0,0,0-6.3-7.55c-4.87-2.46-5.08-1.49-8-2.76a20.11,20.11,0,0,1-5.27-3.46s-1,5.68,3.51,6.72c2.08.49,3.68.33,7.06,1.12A16,16,0,0,1,16.11,24.86Z" transform="translate(9.42 -5.4)"/><path class="cls-3" d="M17.06,24.91A10,10,0,0,0,14.78,16c-3.65-4.06-4.2-3.24-6.5-5.5A20.15,20.15,0,0,1,4.62,5.4s-3,4.93.83,7.53c1.77,1.21,3.32,1.64,6.18,3.6A12.09,12.09,0,0,1,17.06,24.91Z" transform="translate(9.42 -5.4)"/><path class="cls-3" d="M-7.88,19.36a15.75,15.75,0,0,0,4.52,1.71c1.71.15,5,0,5,0" transform="translate(9.42 -5.4)"/><path class="cls-3" d="M-3.57,13A23.64,23.64,0,0,0,.51,15.61a12.85,12.85,0,0,0,3.72.84" transform="translate(9.42 -5.4)"/><path class="cls-3" d="M4.23,6.43s.66,4.68,3.12,6.06a10.36,10.36,0,0,1,3.07,2.22" transform="translate(9.42 -5.4)"/><path class="cls-3" d="M20.18,30.55V26l1.17.54a31.27,31.27,0,0,1,14.13-2.88A37.06,37.06,0,0,1,49.79,28l-2,2.52S41.33,27,35,26.68,20.18,30.55,20.18,30.55Z" transform="translate(9.42 -5.4)"/><path class="cls-3" d="M25.53,24.14A22.81,22.81,0,0,1,35,20.77c5.49-.63,7,.23,10.64-1.2s3.64-2.35,3.64-2.35-1.8,5-4.59,5.41-4.24-.27-11,0S25.53,24.14,25.53,24.14Z" transform="translate(9.42 -5.4)"/><path class="cls-3" d="M24.25,24.86a13.23,13.23,0,0,1,6.3-7.55c4.88-2.46,5.09-1.49,8.06-2.76a20,20,0,0,0,5.26-3.46s1,5.68-3.5,6.72c-2.08.49-3.69.33-7.07,1.12A16,16,0,0,0,24.25,24.86Z" transform="translate(9.42 -5.4)"/><path class="cls-3" d="M23.31,24.91A10,10,0,0,1,25.58,16c3.65-4.06,4.2-3.24,6.51-5.5A20.26,20.26,0,0,0,35.74,5.4s3,4.93-.83,7.53c-1.76,1.21-3.31,1.64-6.17,3.6A12.09,12.09,0,0,0,23.31,24.91Z" transform="translate(9.42 -5.4)"/><path class="cls-3" d="M48.25,19.36a15.75,15.75,0,0,1-4.52,1.71c-1.71.15-4.95,0-4.95,0" transform="translate(9.42 -5.4)"/><path class="cls-3" d="M43.94,13a23.64,23.64,0,0,1-4.08,2.64,12.85,12.85,0,0,1-3.72.84" transform="translate(9.42 -5.4)"/><path class="cls-3" d="M36.14,6.43s-.66,4.68-3.12,6.06A10.36,10.36,0,0,0,30,14.71" transform="translate(9.42 -5.4)"/></g></g></g></svg>